<?xml version="1.0" encoding="UTF-8" standalone="no"?>

<svg
   xmlns:dc="http://purl.org/dc/elements/1.1/"
   xmlns:cc="http://creativecommons.org/ns#"
   xmlns:rdf="http://www.w3.org/1999/02/22-rdf-syntax-ns#"
   xmlns:svg="http://www.w3.org/2000/svg"
   xmlns="http://www.w3.org/2000/svg"
   xmlns:sodipodi="http://sodipodi.sourceforge.net/DTD/sodipodi-0.dtd"
   xmlns:inkscape="http://www.inkscape.org/namespaces/inkscape"
   id="svg8"
   version="1.1"
   class="letters"
   x="0"
   y="0"
   height="100"
   width="100 "
   xml:space="preserve">
    <g id="allLetters">
      <g
         id="c" class="l">
        <path
           transform="matrix(0.28222224,0,0,0.28222222,23.282106,22.839657)"
           id="path4356"
           d="M 86.496094 108.64062 C 86.715679 109.42728 86.944635 110.20859 87.140625 111.00586 C 87.447984 112.25616 87.748325 113.51035 88.115234 114.73633 C 88.482143 115.96231 88.914323 117.16068 89.484375 118.30078 C 89.739309 118.81065 90.173517 119.18763 90.628906 119.55078 C 90.840046 119.71916 91.015841 119.91727 91.220703 120.0918 C 93.278644 117.62146 95.01191 115.15003 96.300781 112.67969 C 97.860781 109.79969 99.060391 106.9807 99.900391 104.2207 C 100.74039 101.3407 101.33922 98.820156 101.69922 96.660156 C 102.17922 94.380156 102.41992 92.579766 102.41992 91.259766 C 102.53992 89.819766 102.59961 89.039922 102.59961 88.919922 C 102.59961 87.479922 102.12016 86.280312 101.16016 85.320312 C 100.20016 84.360313 99.000547 83.880859 97.560547 83.880859 C 96.120547 83.880859 94.859297 84.360313 93.779297 85.320312 C 92.699297 86.280312 92.160156 87.479922 92.160156 88.919922 L 91.980469 90.539062 C 91.980469 91.619062 91.799453 93.059375 91.439453 94.859375 C 91.199453 96.539375 90.72 98.520781 90 100.80078 C 89.28 103.08078 88.319141 105.36063 87.119141 107.64062 C 86.930905 107.99618 86.693443 108.2954 86.496094 108.64062 z "
           style="font-size:50.79999924px;letter-spacing:10.86908436px;stroke-width:0.26458332" />
        <path
           transform="matrix(0.28222224,0,0,0.28222222,23.282106,22.839657)"
           id="path4354"
           d="M 38.626953 124.52344 C 38.682842 124.86412 38.727883 125.20614 38.783203 125.54688 C 39.240276 128.36212 39.669548 131.18107 39.90625 134.02148 C 39.944297 134.47802 39.888248 134.94045 39.873047 135.40039 C 43.516109 136.01762 47.32305 136.43945 51.480469 136.43945 C 58.080468 136.43945 63.839766 135.7193 68.759766 134.2793 C 73.679765 132.8393 77.941016 130.97922 81.541016 128.69922 C 85.141015 126.29922 88.141016 123.72094 90.541016 120.96094 C 90.792896 120.67128 90.979397 120.38146 91.220703 120.0918 C 91.015841 119.91727 90.840046 119.71916 90.628906 119.55078 C 90.173517 119.18763 89.739309 118.81065 89.484375 118.30078 C 88.914323 117.16068 88.482143 115.96231 88.115234 114.73633 C 87.748325 113.51035 87.447984 112.25616 87.140625 111.00586 C 86.944635 110.20859 86.715679 109.42728 86.496094 108.64062 C 79.899717 120.17984 68.258505 126 51.480469 126 C 46.773542 126 42.507849 125.48433 38.626953 124.52344 z "
           style="font-size:50.79999924px;letter-spacing:10.86908436px;stroke-width:0.26458332" />
        <path
           transform="matrix(0.28222224,0,0,0.28222222,23.282106,22.839657)"
           id="path4352"
           d="M 12.464844 93.835938 C 12.345803 93.935586 12.208698 94.012946 12.091797 94.115234 C 10.063197 95.890259 8.4096244 97.918073 6.578125 99.697266 C 5.6703583 100.57911 4.7163875 101.39674 3.6542969 102.0957 C 4.3867202 104.62898 5.2276354 107.14265 6.3007812 109.61914 C 10.260781 117.77914 15.540625 124.20086 22.140625 128.88086 C 27.132999 132.15711 33.105905 134.25386 39.873047 135.40039 C 39.888248 134.94045 39.944297 134.47802 39.90625 134.02148 C 39.669548 131.18107 39.240276 128.36212 38.783203 125.54688 C 38.727883 125.20614 38.682842 124.86412 38.626953 124.52344 C 27.864601 121.85872 20.249665 115.53486 15.839844 105.48047 C 14.519844 102.36047 13.499297 99.119766 12.779297 95.759766 C 12.63939 95.106865 12.591158 94.484307 12.464844 93.835938 z "
           style="font-size:50.79999924px;letter-spacing:10.86908436px;stroke-width:0.26458332" />
        <path
           transform="matrix(0.28222224,0,0,0.28222222,23.282106,22.839657)"
           id="path4350"
           d="M 19.599609 24.181641 C 18.347676 22.070842 17.145515 19.926378 15.720703 17.931641 C 15.050036 16.992706 14.266685 16.141117 13.503906 15.273438 C 13.331424 15.470804 13.130452 15.639509 12.960938 15.839844 C 10.320938 18.959844 8.0391405 22.620313 6.1191406 26.820312 C 4.5591407 30.300312 3.3595312 33.899141 2.5195312 37.619141 C 1.6795313 41.339141 1.0807031 44.999609 0.72070312 48.599609 C 0.36070315 52.199609 0.1796875 55.679063 0.1796875 59.039062 C 0.059687509 62.399062 0 65.460703 0 68.220703 C 1.8503717e-17 70.740703 0.059687509 73.679063 0.1796875 77.039062 C 0.1796875 80.279062 0.36070315 83.760469 0.72070312 87.480469 C 1.2007031 91.080469 1.8592188 94.800625 2.6992188 98.640625 C 2.9613709 99.801585 3.3220184 100.94643 3.6542969 102.0957 C 4.7163875 101.39674 5.6703583 100.57911 6.578125 99.697266 C 8.4096244 97.918073 10.063197 95.890259 12.091797 94.115234 C 12.208698 94.012946 12.345803 93.935586 12.464844 93.835938 C 11.941112 91.147625 11.450203 88.469793 11.160156 85.859375 C 10.800156 82.499375 10.559453 79.320312 10.439453 76.320312 L 10.439453 68.220703 C 10.439453 61.260703 10.799531 54.359531 11.519531 47.519531 C 12.239531 40.559531 13.980235 34.320781 16.740234 28.800781 C 17.563387 27.154475 18.54163 25.635816 19.599609 24.181641 z "
           style="font-size:50.79999924px;letter-spacing:10.86908436px;stroke-width:0.26458332" />
        <path
           transform="matrix(0.28222224,0,0,0.28222222,23.282106,22.839657)"
           id="path4348"
           d="M 87.251953 11.865234 C 78.319628 3.9901468 66.422729 0 51.480469 0 C 39.48047 0 29.640935 2.5205469 21.960938 7.5605469 C 18.816683 9.806443 16.017654 12.397035 13.503906 15.273438 C 14.266685 16.141117 15.050036 16.992706 15.720703 17.931641 C 17.145515 19.926378 18.347676 22.070842 19.599609 24.181641 C 22.088994 20.760022 25.190986 17.83837 28.980469 15.480469 C 34.500466 12.120469 42.000469 10.439453 51.480469 10.439453 C 64.680468 10.439453 74.760704 13.980547 81.720703 21.060547 C 81.993235 21.325713 82.212477 21.639402 82.474609 21.914062 C 83.560915 19.35822 84.616028 16.787475 85.857422 14.304688 C 86.276281 13.466968 86.791686 12.680793 87.251953 11.865234 z "
           style="font-size:50.79999924px;letter-spacing:10.86908436px;stroke-width:0.26458332" />
        <path
           transform="matrix(0.28222224,0,0,0.28222222,23.282106,22.839657)"
           id="path9"
           d="M 87.251953 11.865234 C 86.791686 12.680793 86.276281 13.466968 85.857422 14.304688 C 84.616028 16.787475 83.560915 19.35822 82.474609 21.914062 C 86.483065 26.114082 89.323511 31.380627 90.900391 37.800781 C 91.380391 40.560781 91.740469 42.719297 91.980469 44.279297 C 92.100469 45.239297 92.160156 46.080781 92.160156 46.800781 C 92.160156 48.360781 92.699297 49.620078 93.779297 50.580078 C 94.859297 51.540078 96.120547 52.019531 97.560547 52.019531 C 99.000547 52.019531 100.20016 51.540078 101.16016 50.580078 C 102.12016 49.620078 102.59961 48.420469 102.59961 46.980469 L 102.59961 46.800781 C 102.59961 46.440781 102.48023 45.179531 102.24023 43.019531 C 102.12023 40.739531 101.64078 37.980234 100.80078 34.740234 C 99.960781 31.500234 98.639844 28.020781 96.839844 24.300781 C 95.039844 20.580781 92.519297 17.039687 89.279297 13.679688 C 88.634012 13.034403 87.932081 12.464862 87.251953 11.865234 z "
           style="font-size:50.79999924px;letter-spacing:10.86908436px;stroke-width:0.26458332" />
      </g>
      <g
         id="a1" class="l">
        <path
           transform="matrix(0.28222224,0,0,0.28222222,23.282106,22.839657)"
           id="path4399"
           d="M 204.76953 99.359375 C 204.64075 98.819225 204.43409 98.295002 204.36523 97.744141 C 204.16525 96.144245 204.36523 94.5186 204.36523 92.90625 L 204.36523 88.919922 L 194.98633 88.919922 C 193.54633 88.919922 192.28508 89.459063 191.20508 90.539062 C 190.24508 91.499062 189.76562 92.700625 189.76562 94.140625 C 189.76563 95.580625 190.24508 96.839922 191.20508 97.919922 C 192.28508 98.879922 193.54633 99.359375 194.98633 99.359375 L 204.76953 99.359375 z "
           style="font-size:50.79999924px;letter-spacing:10.86908436px;stroke-width:0.26458332" />
        <path
           transform="matrix(0.28222224,0,0,0.28222222,23.282106,22.839657)"
           id="path4397"
           d="M 165.42383 108.62695 L 166.55469 108.62695 C 166.4458 108.30046 166.27122 107.82604 166.02344 107.17969 L 165.42383 108.62695 z "
           style="font-size:50.79999924px;letter-spacing:10.86908436px;stroke-width:0.26458332" />
        <path
           transform="matrix(0.28222224,0,0,0.28222222,23.282106,22.839657)"
           id="path4395"
           d="M 171.85352 120.64648 C 170.88279 118.36171 169.87759 115.9514 169.29688 114.67383 C 166.54443 109.16893 166.52596 109.27635 166.75195 109.64844 C 166.86495 109.83448 167.03973 110.08679 166.96289 109.73633 C 166.93872 109.62607 166.63817 108.87729 166.55469 108.62695 L 165.42383 108.62695 L 157.18555 128.51953 C 156.58555 129.83953 156.58555 131.16047 157.18555 132.48047 C 157.78555 133.80047 158.74641 134.75938 160.06641 135.35938 C 160.54641 135.59937 161.20688 135.7207 162.04688 135.7207 C 164.08687 135.7207 165.70625 134.70016 166.90625 132.66016 L 171.85352 120.64648 z "
           style="font-size:50.79999924px;letter-spacing:10.86908436px;stroke-width:0.26458332" />
        <path
           transform="matrix(0.28222224,0,0,0.28222222,23.282106,22.839657)"
           id="path4393"
           d="M 176.80273 108.62695 L 166.55469 108.62695 C 166.63817 108.87729 166.93872 109.62607 166.96289 109.73633 C 167.03973 110.08679 166.86495 109.83448 166.75195 109.64844 C 166.52596 109.27635 166.54443 109.16893 169.29688 114.67383 C 169.87759 115.9514 170.88279 118.36171 171.85352 120.64648 L 176.80273 108.62695 z "
           style="font-size:50.79999924px;letter-spacing:10.86908436px;stroke-width:0.26458332" />
        <path
           transform="matrix(0.28222224,0,0,0.28222222,23.282106,22.839657)"
           id="path4391"
           d="M 188.67773 79.783203 C 188.26034 79.746659 187.8526 79.637552 187.43555 79.605469 C 185.02415 79.419977 182.59822 79.605469 180.17969 79.605469 L 177.44336 79.605469 L 166.02344 107.17969 C 166.27122 107.82604 166.4458 108.30046 166.55469 108.62695 L 176.80273 108.62695 L 188.67773 79.783203 z "
           style="font-size:50.79999924px;letter-spacing:10.86908436px;stroke-width:0.26458332" />
        <path
           transform="matrix(0.28222224,0,0,0.28222222,23.282106,22.839657)"
           id="path4389"
           d="M 195.22461 63.884766 L 213.15039 20.351562 C 213.04358 20.352599 212.93684 20.351562 212.83008 20.351562 L 206.7832 20.351562 C 205.22106 20.351562 203.59671 20.331855 202.00391 20.300781 L 183.95312 63.884766 L 185.01758 63.884766 L 191.0625 63.884766 C 192.44974 63.884766 193.83759 63.889914 195.22461 63.884766 z "
           style="font-size:50.79999924px;letter-spacing:10.86908436px;stroke-width:0.26458332" />
        <path
           transform="matrix(0.28222224,0,0,0.28222222,23.282106,22.839657)"
           id="path4387"
           d="M 195.22461 63.884766 C 193.83759 63.889914 192.44974 63.884766 191.0625 63.884766 L 185.01758 63.884766 L 183.95312 63.884766 L 177.44336 79.605469 L 180.17969 79.605469 C 182.59822 79.605469 185.02415 79.419977 187.43555 79.605469 C 187.8526 79.637552 188.26034 79.746659 188.67773 79.783203 L 195.22461 63.884766 z "
           style="font-size:50.79999924px;letter-spacing:10.86908436px;stroke-width:0.26458332" />
        <path
           transform="matrix(0.28222224,0,0,0.28222222,23.282106,22.839657)"
           id="path4385"
           d="M 235.49023 97.654297 C 236.41308 96.630798 236.92578 95.47174 236.92578 94.140625 C 236.92578 92.700625 236.38664 91.499062 235.30664 90.539062 C 234.34664 89.459063 233.14508 88.919922 231.70508 88.919922 L 214.54688 88.919922 C 216.05406 89.680553 216.94239 90.125494 220.08594 91.697266 C 222.50446 92.906525 224.81804 94.353544 227.3418 95.324219 C 229.97838 96.338292 232.79943 96.79481 235.49023 97.654297 z "
           style="font-size:50.79999924px;letter-spacing:10.86908436px;stroke-width:0.26458332" />
        <path
           transform="matrix(0.28222224,0,0,0.28222222,23.282106,22.839657)"
           id="path4383"
           d="M 235.49023 97.654297 C 232.79943 96.79481 229.97838 96.338292 227.3418 95.324219 C 224.81804 94.353544 222.50446 92.906525 220.08594 91.697266 C 216.94239 90.125494 216.05406 89.680553 214.54688 88.919922 L 204.36523 88.919922 L 204.36523 92.90625 C 204.36523 94.5186 204.16525 96.144245 204.36523 97.744141 C 204.43409 98.295002 204.64075 98.819225 204.76953 99.359375 L 231.70508 99.359375 C 233.14508 99.359375 234.34664 98.879922 235.30664 97.919922 C 235.3883 97.838258 235.41475 97.738019 235.49023 97.654297 z "
           style="font-size:50.79999924px;letter-spacing:10.86908436px;stroke-width:0.26458332" />
        <path
           transform="matrix(0.28222224,0,0,0.28222222,23.282106,22.839657)"
           id="path4381"
           d="M 259.19141 103.78906 L 257.57227 103.78906 C 255.95992 103.78906 254.31736 104.10527 252.73633 103.78906 C 251.87273 103.61634 249.33941 102.6673 247.22266 101.91406 L 259.78516 132.66016 C 260.38516 133.98016 261.28633 134.93906 262.48633 135.53906 C 263.80633 136.01906 265.12531 135.95937 266.44531 135.35938 C 267.76531 134.75938 268.72617 133.80047 269.32617 132.48047 C 269.92617 131.16047 269.92617 129.83953 269.32617 128.51953 L 259.19141 103.78906 z "
           style="font-size:50.79999924px;letter-spacing:10.86908436px;stroke-width:0.26458332" />
        <path
           transform="matrix(0.28222224,0,0,0.28222222,23.282106,22.839657)"
           id="path4379"
           d="M 253.88672 90.847656 C 253.4498 91.179843 253.38459 91.15705 252.73633 91.697266 C 252.07944 92.244673 251.52775 92.91489 250.96289 93.566406 C 250.39803 94.217923 249.81889 94.849908 249.10742 95.324219 C 248.57712 95.677749 247.94658 95.82215 247.31055 95.957031 C 246.67452 96.091912 246.03383 96.21895 245.48047 96.535156 C 245.35453 96.60712 245.25478 96.718874 245.13281 96.796875 L 247.22266 101.91406 C 249.33941 102.6673 251.87273 103.61634 252.73633 103.78906 C 254.31736 104.10527 255.95992 103.78906 257.57227 103.78906 L 259.19141 103.78906 L 253.88672 90.847656 z "
           style="font-size:50.79999924px;letter-spacing:10.86908436px;stroke-width:0.26458332" />
        <path
           transform="matrix(0.28222224,0,0,0.28222222,23.282106,22.839657)"
           id="path4377"
           d="M 238.10352 52.335938 C 237.11927 52.709773 236.1305 53.072846 235.17773 53.535156 C 233.79186 54.207622 232.41423 54.903676 230.96875 55.419922 C 230.16724 55.706176 229.33405 55.89402 228.51367 56.121094 L 245.13281 96.796875 C 245.25478 96.718874 245.35453 96.60712 245.48047 96.535156 C 246.03383 96.21895 246.67452 96.091912 247.31055 95.957031 C 247.94658 95.82215 248.57712 95.677749 249.10742 95.324219 C 249.81889 94.849908 250.39803 94.217923 250.96289 93.566406 C 251.52775 92.91489 252.07944 92.244673 252.73633 91.697266 C 253.38459 91.15705 253.4498 91.179843 253.88672 90.847656 L 238.10352 52.335938 z "
           style="font-size:50.79999924px;letter-spacing:10.86908436px;stroke-width:0.26458332" />
        <path
           transform="matrix(0.28222224,0,0,0.28222222,23.282106,22.839657)"
           id="path4375"
           d="M 234.01172 42.351562 C 232.23708 43.17797 230.26492 43.584804 228.55078 44.537109 C 227.22069 45.276046 226.08072 46.308518 224.89844 47.275391 L 228.51367 56.121094 C 229.33405 55.89402 230.16724 55.706176 230.96875 55.419922 C 232.41423 54.903676 233.79186 54.207622 235.17773 53.535156 C 236.1305 53.072846 237.11927 52.709773 238.10352 52.335938 L 234.01172 42.351562 z "
           style="font-size:50.79999924px;letter-spacing:10.86908436px;stroke-width:0.26458332" />
        <path
           transform="matrix(0.28222224,0,0,0.28222222,23.282106,22.839657)"
           id="path4373"
           d="M 225.70898 22.089844 C 225.34194 21.837238 225.44764 21.911059 224.92188 21.560547 C 222.9974 20.838864 220.9221 20.556082 218.87695 20.351562 C 217.22584 20.186445 215.55992 20.308679 213.89844 20.351562 L 224.89844 47.275391 C 226.08072 46.308518 227.22069 45.276046 228.55078 44.537109 C 230.26492 43.584804 232.23708 43.17797 234.01172 42.351562 L 225.70898 22.089844 z "
           style="font-size:50.79999924px;letter-spacing:10.86908436px;stroke-width:0.26458332" />
        <path
           transform="matrix(0.28222224,0,0,0.28222222,23.282106,22.839657)"
           id="path11"
           d="M 213.52539 0.72070312 C 211.24539 0.72070312 209.6857 1.7392969 208.8457 3.7792969 L 202.00391 20.300781 C 203.59671 20.331855 205.22106 20.351562 206.7832 20.351562 L 212.83008 20.351562 C 212.93684 20.351562 213.04358 20.352599 213.15039 20.351562 L 213.52539 19.439453 L 213.89844 20.351562 C 215.55992 20.308679 217.22584 20.186445 218.87695 20.351562 C 220.9221 20.556082 222.9974 20.838864 224.92188 21.560547 C 225.44764 21.911059 225.34194 21.837238 225.70898 22.089844 L 218.20508 3.7792969 C 217.36508 1.7392969 215.80539 0.72070312 213.52539 0.72070312 z "
           style="font-size:50.79999924px;letter-spacing:10.86908436px;stroke-width:0.26458332" />
      </g>
      <g
         id="t1" class="l">
        <path
           transform="matrix(0.28222224,0,0,0.28222222,23.282106,22.839657)"
           id="path4414"
           d="M 366.38281 107.41797 L 365.19727 107.41797 C 358.8796 107.41797 359.34119 107.54445 360.09375 107.45703 C 360.47003 107.41332 360.91885 107.317 360.62891 107.12305 C 360.33896 106.92909 359.31112 106.63877 356.73242 106.20898 C 356.59999 106.18691 356.13203 106.2243 355.94336 106.20898 L 355.94336 130.5 C 355.94336 131.94 356.42281 133.1993 357.38281 134.2793 C 358.34281 135.2393 359.60406 135.7207 361.16406 135.7207 C 362.60406 135.7207 363.80367 135.2393 364.76367 134.2793 C 365.84367 133.1993 366.38281 131.94 366.38281 130.5 L 366.38281 107.41797 z "
           style="font-size:50.79999924px;letter-spacing:10.86908436px;stroke-width:0.26458332" />
        <path
           transform="matrix(0.28222224,0,0,0.28222222,23.282106,22.839657)"
           id="path4412"
           d="M 355.94336 75.976562 L 355.94336 106.20898 C 356.13203 106.2243 356.59999 106.18691 356.73242 106.20898 C 359.31112 106.63877 360.33896 106.92909 360.62891 107.12305 C 360.91885 107.317 360.47003 107.41332 360.09375 107.45703 C 359.34119 107.54445 358.8796 107.41797 365.19727 107.41797 L 366.38281 107.41797 L 366.38281 75.976562 L 355.94336 75.976562 z "
           style="font-size:50.79999924px;letter-spacing:10.86908436px;stroke-width:0.26458332" />
        <path
           transform="matrix(0.28222224,0,0,0.28222222,23.282106,22.839657)"
           id="path4410"
           d="M 366.38281 56.210938 L 366.38281 23.759766 C 366.38281 22.439766 365.84367 21.299844 364.76367 20.339844 C 363.80367 19.259844 362.60406 18.720703 361.16406 18.720703 C 359.60406 18.720703 358.34281 19.259844 357.38281 20.339844 C 356.42281 21.299844 355.94336 22.439766 355.94336 23.759766 L 355.94336 51.228516 C 357.25813 51.732884 358.578 52.228711 359.85742 52.78125 C 361.66989 53.56399 363.44843 54.420589 365.19727 55.419922 C 365.60976 55.655633 365.98443 55.952402 366.38281 56.210938 z "
           style="font-size:50.79999924px;letter-spacing:10.86908436px;stroke-width:0.26458332" />
        <path
           transform="matrix(0.28222224,0,0,0.28222222,23.282106,22.839657)"
           id="path4408"
           d="M 366.38281 56.210938 C 365.98443 55.952402 365.60976 55.655633 365.19727 55.419922 C 363.44843 54.420589 361.66989 53.56399 359.85742 52.78125 C 358.578 52.228711 357.25813 51.732884 355.94336 51.228516 L 355.94336 75.976562 L 366.38281 75.976562 L 366.38281 56.210938 z "
           style="font-size:50.79999924px;letter-spacing:10.86908436px;stroke-width:0.26458332" />
        <path
           transform="matrix(0.28222224,0,0,0.28222222,23.282106,22.839657)"
           id="path4406"
           d="M 390.5918 0.72070312 C 390.65645 2.827031 390.35879 4.9524423 390.5918 7.0488281 C 390.73247 8.3157057 391.49163 9.4411202 391.80078 10.677734 C 391.82575 10.777594 391.83773 10.880302 391.86133 10.980469 L 404.00391 10.980469 C 405.44391 10.980469 406.64352 10.499062 407.60352 9.5390625 C 408.68352 8.4590625 409.22266 7.2594531 409.22266 5.9394531 C 409.22266 4.4994531 408.68352 3.2998437 407.60352 2.3398438 C 406.64352 1.2598438 405.44391 0.72070312 404.00391 0.72070312 L 390.5918 0.72070312 z "
           style="font-size:50.79999924px;letter-spacing:10.86908436px;stroke-width:0.26458332" />
        <path
           transform="matrix(0.28222224,0,0,0.28222222,23.282106,22.839657)"
           id="path4404"
           d="M 334.96484 10.980469 L 334.96484 0.72070312 L 318.68359 0.72070312 C 317.24359 0.72070312 315.9843 1.2598438 314.9043 2.3398438 C 313.9443 3.2998437 313.46289 4.4994531 313.46289 5.9394531 C 313.46289 7.2594531 313.9443 8.4590625 314.9043 9.5390625 C 315.9843 10.499062 317.24359 10.980469 318.68359 10.980469 L 334.96484 10.980469 z "
           style="font-size:50.79999924px;letter-spacing:10.86908436px;stroke-width:0.26458332" />
        <path
           transform="matrix(0.28222224,0,0,0.28222222,23.282106,22.839657)"
           id="path4402"
           d="M 349.75781 0.72070312 L 334.96484 0.72070312 L 334.96484 10.980469 L 340.40625 10.980469 C 340.97015 10.043131 341.51105 9.0857557 342.2207 8.2578125 C 342.35763 8.0980799 347.19193 3.2859245 349.75781 0.72070312 z "
           style="font-size:50.79999924px;letter-spacing:10.86908436px;stroke-width:0.26458332" />
        <path
           transform="matrix(0.28222224,0,0,0.28222222,23.282106,22.839657)"
           id="path13"
           d="M 349.75781 0.72070312 C 347.19193 3.2859245 342.35763 8.0980799 342.2207 8.2578125 C 341.51105 9.0857557 340.97015 10.043131 340.40625 10.980469 L 391.86133 10.980469 C 391.83773 10.880302 391.82575 10.777594 391.80078 10.677734 C 391.49163 9.4411202 390.73247 8.3157057 390.5918 7.0488281 C 390.35879 4.9524423 390.65645 2.827031 390.5918 0.72070312 L 349.75781 0.72070312 z "
           style="font-size:50.79999924px;letter-spacing:10.86908436px;stroke-width:0.26458332" />
      </g>
      <g
         id="a2" class="l">
        <path
           transform="matrix(0.28222224,0,0,0.28222222,23.282106,22.839657)"
           id="path4435"
           d="M 511.71875 99.359375 L 534.78516 99.359375 C 536.22516 99.359375 537.42477 98.879922 538.38477 97.919922 C 539.46477 96.839922 540.00586 95.580625 540.00586 94.140625 C 540.00586 92.700625 539.46477 91.499062 538.38477 90.539062 C 537.42477 89.459063 536.22516 88.919922 534.78516 88.919922 L 514.29492 88.919922 C 514.16563 89.032398 513.98916 89.118543 513.93555 89.279297 C 513.68078 90.044098 514.09358 90.90675 513.93555 91.697266 C 513.68557 92.947185 513.07664 94.098589 512.72656 95.324219 C 512.34575 96.657044 512.13171 98.041229 511.71875 99.359375 z "
           style="font-size:50.79999924px;letter-spacing:10.86908436px;stroke-width:0.26458332" />
        <path
           transform="matrix(0.28222224,0,0,0.28222222,23.282106,22.839657)"
           id="path4433"
           d="M 511.71875 99.359375 C 512.13171 98.041229 512.34575 96.657044 512.72656 95.324219 C 513.07664 94.098589 513.68557 92.947185 513.93555 91.697266 C 514.09358 90.90675 513.68078 90.044098 513.93555 89.279297 C 513.98916 89.118543 514.16563 89.032398 514.29492 88.919922 L 498.06641 88.919922 C 496.62641 88.919922 495.36516 89.459063 494.28516 90.539062 C 493.32516 91.499062 492.8457 92.700625 492.8457 94.140625 C 492.8457 95.580625 493.32516 96.839922 494.28516 97.919922 C 495.36516 98.879922 496.62641 99.359375 498.06641 99.359375 L 511.71875 99.359375 z "
           style="font-size:50.79999924px;letter-spacing:10.86908436px;stroke-width:0.26458332" />
        <path
           transform="matrix(0.28222224,0,0,0.28222222,23.282106,22.839657)"
           id="path4431"
           d="M 479.38477 109.83594 L 468.00391 109.83594 L 460.26562 128.51953 C 459.66563 129.83953 459.66563 131.16047 460.26562 132.48047 C 460.86562 133.80047 461.82648 134.75938 463.14648 135.35938 C 463.62648 135.59937 464.285 135.7207 465.125 135.7207 C 467.165 135.7207 468.78633 134.70016 469.98633 132.66016 L 479.38477 109.83594 z "
           style="font-size:50.79999924px;letter-spacing:10.86908436px;stroke-width:0.26458332" />
        <path
           transform="matrix(0.28222224,0,0,0.28222222,23.282106,22.839657)"
           id="path4429"
           d="M 498.42969 63.583984 C 497.32393 63.136608 495.99189 62.699287 494.42383 62.369141 C 492.4667 61.957078 490.56423 61.647738 489.75 61.466797 C 489.22847 61.350902 488.71262 61.211923 488.19531 61.078125 L 468.00391 109.83594 L 479.38477 109.83594 L 498.42969 63.583984 z "
           style="font-size:50.79999924px;letter-spacing:10.86908436px;stroke-width:0.26458332" />
        <path
           transform="matrix(0.28222224,0,0,0.28222222,23.282106,22.839657)"
           id="path4427"
           d="M 516.23438 20.339844 C 515.90438 20.343952 515.45721 20.351562 515.14453 20.351562 L 509.09961 20.351562 C 507.75414 20.351562 506.40451 20.289144 505.0625 20.351562 L 488.19531 61.078125 C 488.71262 61.211923 489.22847 61.350902 489.75 61.466797 C 490.56423 61.647738 492.4667 61.957078 494.42383 62.369141 C 495.99189 62.699287 497.32393 63.136608 498.42969 63.583984 L 516.23438 20.339844 z "
           style="font-size:50.79999924px;letter-spacing:10.86908436px;stroke-width:0.26458332" />
        <path
           transform="matrix(0.28222224,0,0,0.28222222,23.282106,22.839657)"
           id="path4425"
           d="M 572.66797 129.67383 C 572.25626 129.82866 572.02425 129.96232 571.59961 130.11133 C 569.52604 130.83897 567.37691 131.45918 565.93359 131.60352 C 564.78301 131.71858 563.62451 131.67802 562.46875 131.68945 L 562.86523 132.66016 C 563.46523 133.98016 564.36641 134.93906 565.56641 135.53906 C 566.88641 136.01906 568.20539 135.95937 569.52539 135.35938 C 570.84539 134.75938 571.80625 133.80047 572.40625 132.48047 C 572.8314 131.54514 572.84533 130.60916 572.66797 129.67383 z "
           style="font-size:50.79999924px;letter-spacing:10.86908436px;stroke-width:0.26458332" />
        <path
           transform="matrix(0.28222224,0,0,0.28222222,23.282106,22.839657)"
           id="path4423"
           d="M 558.54492 94.695312 C 557.72894 95.676098 556.87653 96.633949 556.25977 97.744141 C 555.2056 99.641667 554.89597 101.89153 553.8418 103.78906 C 553.36938 104.63943 552.67652 105.35773 552.00781 106.08594 L 562.46875 131.68945 C 563.62451 131.67802 564.78301 131.71858 565.93359 131.60352 C 567.37691 131.45918 569.52604 130.83897 571.59961 130.11133 C 572.02425 129.96232 572.25626 129.82866 572.66797 129.67383 C 572.59503 129.28916 572.5811 128.9042 572.40625 128.51953 L 558.54492 94.695312 z "
           style="font-size:50.79999924px;letter-spacing:10.86908436px;stroke-width:0.26458332" />
        <path
           transform="matrix(0.28222224,0,0,0.28222222,23.282106,22.839657)"
           id="path4421"
           d="M 551.36914 77.185547 C 550.38454 77.083029 549.38827 77.166664 548.39258 77.238281 C 547.37925 77.311167 546.36841 77.365813 545.37695 77.185547 C 544.12284 76.957526 542.92339 76.520418 541.73047 76.056641 C 540.9596 75.756947 540.17745 75.495637 539.39844 75.222656 L 552.00781 106.08594 C 552.67652 105.35773 553.36938 104.63943 553.8418 103.78906 C 554.89597 101.89153 555.2056 99.641667 556.25977 97.744141 C 556.87653 96.633949 557.72894 95.676098 558.54492 94.695312 L 551.36914 77.185547 z "
           style="font-size:50.79999924px;letter-spacing:10.86908436px;stroke-width:0.26458332" />
        <path
           transform="matrix(0.28222224,0,0,0.28222222,23.282106,22.839657)"
           id="path4419"
           d="M 537.11914 42.414062 C 536.67641 43.14315 536.23444 43.872959 535.70312 44.537109 C 534.99088 45.427376 533.91561 46.006457 533.2832 46.955078 C 533.05962 47.290452 533.2832 47.760976 533.2832 48.164062 C 533.2832 49.373322 533.52025 50.605237 533.2832 51.791016 C 533.10639 52.67484 532.47727 53.404764 532.07422 54.210938 C 531.88516 54.778059 531.72209 55.351258 531.50781 55.912109 L 539.39844 75.222656 C 540.17745 75.495637 540.9596 75.756947 541.73047 76.056641 C 542.92339 76.520418 544.12284 76.957526 545.37695 77.185547 C 546.36841 77.365813 547.37925 77.311167 548.39258 77.238281 C 549.38827 77.166664 550.38454 77.083029 551.36914 77.185547 L 537.11914 42.414062 z "
           style="font-size:50.79999924px;letter-spacing:10.86908436px;stroke-width:0.26458332" />
        <path
           transform="matrix(0.28222224,0,0,0.28222222,23.282106,22.839657)"
           id="path4417"
           d="M 528.14258 20.511719 C 526.88627 20.381754 525.6088 20.274912 524.29883 20.248047 C 521.69673 20.194682 519.25806 20.289006 516.96875 20.330078 L 531.50781 55.912109 C 531.72209 55.351258 531.88516 54.778059 532.07422 54.210938 C 532.47727 53.404764 533.10639 52.67484 533.2832 51.791016 C 533.52025 50.605237 533.2832 49.373322 533.2832 48.164062 C 533.2832 47.760976 533.05962 47.290452 533.2832 46.955078 C 533.91561 46.006457 534.99088 45.427376 535.70312 44.537109 C 536.23444 43.872959 536.67641 43.14315 537.11914 42.414062 L 528.14258 20.511719 z "
           style="font-size:50.79999924px;letter-spacing:10.86908436px;stroke-width:0.26458332" />
        <path
           transform="matrix(0.28222224,0,0,0.28222222,23.282106,22.839657)"
           id="path15"
           d="M 516.60547 0.72070312 C 514.32547 0.72070312 512.76578 1.7392969 511.92578 3.7792969 L 505.0625 20.351562 C 506.40451 20.289144 507.75414 20.351562 509.09961 20.351562 L 515.14453 20.351562 C 515.45721 20.351562 515.90438 20.343952 516.23438 20.339844 L 516.60547 19.439453 L 516.96875 20.330078 C 519.25806 20.289006 521.69673 20.194682 524.29883 20.248047 C 525.6088 20.274912 526.88627 20.381754 528.14258 20.511719 L 521.28516 3.7792969 C 520.44516 1.7392969 518.88547 0.72070312 516.60547 0.72070312 z "
           style="font-size:50.79999924px;letter-spacing:10.86908436px;stroke-width:0.26458332" />
      </g>
      <g
         id="l" class="l">
        <path
           transform="matrix(0.28222224,0,0,0.28222222,23.282106,22.839657)"
           id="path4450"
           d="M 644.46484 135.7207 C 644.49704 134.6912 644.53516 133.5978 644.53516 132.8125 C 644.53516 127.98109 644.46168 128.87065 644.57617 129.46484 C 644.6048 129.61339 644.64694 129.74204 644.70312 129.75977 C 644.75931 129.77749 644.82997 129.68388 644.92188 129.38281 C 645.06504 128.91381 645.30927 127.287 645.56445 125.46094 L 621.76367 125.46094 C 620.32367 125.46094 619.06242 125.94039 617.98242 126.90039 C 617.02242 127.86039 616.54297 129.06 616.54297 130.5 C 616.54297 131.94 617.02242 133.1993 617.98242 134.2793 C 619.06242 135.2393 620.32367 135.7207 621.76367 135.7207 L 644.46484 135.7207 z "
           style="font-size:50.79999924px;letter-spacing:10.86908436px;stroke-width:0.26458332" />
        <path
           transform="matrix(0.28222224,0,0,0.28222222,23.282106,22.839657)"
           id="path4448"
           d="M 676.23828 125.46094 L 645.56445 125.46094 C 645.30927 127.287 645.06504 128.91381 644.92188 129.38281 C 644.82997 129.68388 644.75931 129.77749 644.70312 129.75977 C 644.64694 129.74204 644.6048 129.61339 644.57617 129.46484 C 644.46168 128.87065 644.53516 127.98109 644.53516 132.8125 C 644.53516 133.5978 644.49704 134.6912 644.46484 135.7207 L 674.20898 135.7207 C 674.42331 134.58843 674.68584 133.22118 674.76758 132.8125 L 675.97656 126.76562 C 676.06354 126.33071 676.16311 125.89879 676.23828 125.46094 z "
           style="font-size:50.79999924px;letter-spacing:10.86908436px;stroke-width:0.26458332" />
        <path
           transform="matrix(0.28222224,0,0,0.28222222,23.282106,22.839657)"
           id="path4446"
           d="M 686.36914 135.7207 L 690.16406 135.7207 C 691.48406 135.7207 692.68367 135.2393 693.76367 134.2793 C 694.84367 133.1993 695.38281 131.94 695.38281 130.5 C 695.38281 129.06945 694.84517 127.8787 693.7793 126.92188 C 693.13401 128.11305 692.54039 129.34064 691.69727 130.39453 C 690.12843 132.35562 688.18541 133.98106 686.36914 135.7207 z "
           style="font-size:50.79999924px;letter-spacing:10.86908436px;stroke-width:0.26458332" />
        <path
           transform="matrix(0.28222224,0,0,0.28222222,23.282106,22.839657)"
           id="path4444"
           d="M 686.36914 135.7207 C 688.18541 133.98106 690.12843 132.35562 691.69727 130.39453 C 692.54039 129.34064 693.13401 128.11305 693.7793 126.92188 C 693.77226 126.91556 693.77076 126.90669 693.76367 126.90039 C 692.68367 125.94039 691.48406 125.46094 690.16406 125.46094 L 676.23828 125.46094 C 676.16311 125.89879 676.06354 126.33071 675.97656 126.76562 L 674.76758 132.8125 C 674.68584 133.22118 674.42331 134.58843 674.20898 135.7207 L 686.36914 135.7207 z "
           style="font-size:50.79999924px;letter-spacing:10.86908436px;stroke-width:0.26458332" />
        <path
           transform="matrix(0.28222224,0,0,0.28222222,23.282106,22.839657)"
           id="path4442"
           d="M 626.80273 83.632812 C 625.44312 84.269176 624.21527 85.237328 622.76953 85.650391 C 621.6068 85.982611 620.32643 85.413237 619.14062 85.650391 C 618.25682 85.827156 617.55951 86.524639 616.72266 86.859375 C 616.66397 86.88285 616.60243 86.898263 616.54297 86.919922 L 616.54297 115.01953 C 616.54297 116.45953 617.02242 117.65914 617.98242 118.61914 C 619.06242 119.57914 620.32367 120.06055 621.76367 120.06055 C 623.20367 120.06055 624.40328 119.57914 625.36328 118.61914 C 626.32328 117.65914 626.80273 116.45953 626.80273 115.01953 L 626.80273 83.632812 z "
           style="font-size:50.79999924px;letter-spacing:10.86908436px;stroke-width:0.26458332" />
        <path
           transform="matrix(0.28222224,0,0,0.28222222,23.282106,22.839657)"
           id="path4440"
           d="M 626.80273 73.783203 C 625.09473 73.465213 623.41096 73.223717 620.35156 72.349609 C 619.12593 71.999431 617.94829 71.49081 616.72266 71.140625 C 616.64643 71.118846 616.61749 71.116335 616.54297 71.095703 L 616.54297 86.919922 C 616.60243 86.898263 616.66397 86.88285 616.72266 86.859375 C 617.55951 86.524639 618.25682 85.827156 619.14062 85.650391 C 620.32643 85.413237 621.6068 85.982611 622.76953 85.650391 C 624.21527 85.237328 625.44312 84.269176 626.80273 83.632812 L 626.80273 73.783203 z "
           style="font-size:50.79999924px;letter-spacing:10.86908436px;stroke-width:0.26458332" />
        <path
           transform="matrix(0.28222224,0,0,0.28222222,23.282106,22.839657)"
           id="path4438"
           d="M 626.80273 25.1875 C 626.66707 25.186986 626.49226 25.091725 626.39648 25.1875 C 625.75915 25.824838 625.72831 26.886355 625.1875 27.607422 C 623.81939 29.431584 621.77601 30.662819 620.35156 32.443359 C 619.48582 33.525552 618.00833 36.097825 616.54297 38.537109 L 616.54297 71.095703 C 616.61749 71.116335 616.64643 71.118846 616.72266 71.140625 C 617.94829 71.49081 619.12593 71.999431 620.35156 72.349609 C 623.41096 73.223717 625.09473 73.465213 626.80273 73.783203 L 626.80273 25.1875 z "
           style="font-size:50.79999924px;letter-spacing:10.86908436px;stroke-width:0.26458332" />
        <path
           transform="matrix(0.28222224,0,0,0.28222222,23.282106,22.839657)"
           id="path17"
           d="M 621.76367 0.72070312 C 620.32367 0.72070312 619.06242 1.2598438 617.98242 2.3398438 C 617.02242 3.2998437 616.54297 4.4994531 616.54297 5.9394531 L 616.54297 38.537109 C 618.00833 36.097825 619.48582 33.525552 620.35156 32.443359 C 621.77601 30.662819 623.81939 29.431584 625.1875 27.607422 C 625.72831 26.886355 625.75915 25.824838 626.39648 25.1875 C 626.49226 25.091725 626.66707 25.186986 626.80273 25.1875 L 626.80273 5.9394531 C 626.80273 4.4994531 626.32328 3.2998437 625.36328 2.3398438 C 624.40328 1.2598438 623.20367 0.72070312 621.76367 0.72070312 z "
           style="font-size:50.79999924px;letter-spacing:10.86908436px;stroke-width:0.26458332" />
      </g>
      <g
         id="y" class="l">
        <path
           transform="matrix(0.28222224,0,0,0.28222222,23.282106,22.839657)"
           id="path4465"
           d="M 799.92969 102.12305 C 799.7216 102.26807 799.53562 102.44551 799.32031 102.58008 C 798.05572 103.37045 796.49534 104.02547 794.97266 104.75977 C 793.44997 105.49406 791.96497 106.30847 790.85547 107.41797 C 790.34164 107.9318 790.02181 108.61235 789.6875 109.27734 C 789.68273 109.28683 789.6747 109.29326 789.66992 109.30273 L 789.66992 130.67969 C 789.66992 131.99969 790.14938 133.1993 791.10938 134.2793 C 792.06937 135.2393 793.27094 135.7207 794.71094 135.7207 C 796.27094 135.7207 797.53023 135.2393 798.49023 134.2793 C 799.45023 133.1993 799.92969 131.99969 799.92969 130.67969 L 799.92969 102.12305 z "
           style="font-size:50.79999924px;letter-spacing:10.86908436px;stroke-width:0.26458332" />
        <path
           transform="matrix(0.28222224,0,0,0.28222222,23.282106,22.839657)"
           id="path4463"
           d="M 826.67188 12.443359 C 827.22006 12.223367 827.77406 12.02914 828.34375 11.886719 C 828.73479 11.788959 829.14965 11.886719 829.55273 11.886719 L 831.9707 11.886719 L 834.39062 11.886719 C 835.1968 11.886719 836.02652 11.691199 836.80859 11.886719 C 837.58857 12.081711 838.3301 12.458477 839.0332 12.9375 L 841.87109 8.8203125 C 842.71109 7.6203125 842.94984 6.3590625 842.58984 5.0390625 C 842.34984 3.5990625 841.62969 2.4591406 840.42969 1.6191406 C 839.22969 0.77914063 837.9107 0.54039063 836.4707 0.90039062 C 835.1507 1.1403906 834.07047 1.8008594 833.23047 2.8808594 L 826.67188 12.443359 z "
           style="font-size:50.79999924px;letter-spacing:10.86908436px;stroke-width:0.26458332" />
        <path
           transform="matrix(0.28222224,0,0,0.28222222,23.282106,22.839657)"
           id="path4461"
           d="M 825.31055 32.84375 L 839.0332 12.9375 C 838.3301 12.458477 837.58857 12.081711 836.80859 11.886719 C 836.02652 11.691199 835.1968 11.886719 834.39062 11.886719 L 831.9707 11.886719 L 829.55273 11.886719 C 829.14965 11.886719 828.73479 11.788959 828.34375 11.886719 C 827.77406 12.02914 827.22006 12.223367 826.67188 12.443359 L 818.34375 24.585938 C 818.89655 24.709958 819.44474 24.840169 819.87891 25.1875 C 820.44634 25.641451 820.90344 26.194077 821.30273 26.798828 C 821.70203 27.403579 822.04264 28.061564 822.37695 28.726562 C 823.04558 30.05656 823.68718 31.415687 824.71484 32.443359 C 825.00531 32.733823 825.0828 32.663246 825.31055 32.84375 z "
           style="font-size:50.79999924px;letter-spacing:10.86908436px;stroke-width:0.26458332" />
        <path
           transform="matrix(0.28222224,0,0,0.28222222,23.282106,22.839657)"
           id="path4459"
           d="M 789.66992 90.488281 L 789.66992 109.30273 C 789.6747 109.29326 789.68273 109.28683 789.6875 109.27734 C 790.02181 108.61235 790.34164 107.9318 790.85547 107.41797 C 791.96497 106.30847 793.44997 105.49406 794.97266 104.75977 C 796.49534 104.02547 798.05572 103.37045 799.32031 102.58008 C 799.53562 102.44551 799.7216 102.26807 799.92969 102.12305 L 799.92969 88.830078 C 799.72756 88.965093 799.52139 89.153621 799.32031 89.279297 C 798.68365 89.677212 798.08759 89.950695 797.50586 90.138672 C 796.92413 90.326649 796.3567 90.42879 795.7832 90.480469 C 794.6362 90.583826 793.46064 90.488281 792.06641 90.488281 L 789.66992 90.488281 z "
           style="font-size:50.79999924px;letter-spacing:10.86908436px;stroke-width:0.26458332" />
        <path
           transform="matrix(0.28222224,0,0,0.28222222,23.282106,22.839657)"
           id="path4457"
           d="M 791.68945 54.587891 L 787.87109 48.960938 C 787.03109 47.760938 785.95086 47.040781 784.63086 46.800781 C 783.31086 46.440781 781.98992 46.739219 780.66992 47.699219 C 779.58992 48.539219 778.86977 49.619453 778.50977 50.939453 C 778.26977 52.259453 778.57016 53.520703 779.41016 54.720703 L 786.01953 64.345703 C 785.985 63.7854 785.88445 63.215928 786.01953 62.675781 C 786.45793 60.922216 786.69326 60.566975 787.00391 60.375 C 787.31455 60.183025 787.69996 60.153189 788.4375 59.046875 C 788.93746 58.296923 789.08345 57.332724 789.64648 56.628906 C 790.2478 55.877269 790.98494 55.247156 791.68945 54.587891 z "
           style="font-size:50.79999924px;letter-spacing:10.86908436px;stroke-width:0.26458332" />
        <path
           transform="matrix(0.28222224,0,0,0.28222222,23.282106,22.839657)"
           id="path4455"
           d="M 791.68945 54.587891 C 790.98494 55.247156 790.2478 55.877269 789.64648 56.628906 C 789.08345 57.332724 788.93746 58.296923 788.4375 59.046875 C 787.69996 60.153189 787.31455 60.183025 787.00391 60.375 C 786.69326 60.566975 786.45793 60.922216 786.01953 62.675781 C 785.88445 63.215928 785.985 63.7854 786.01953 64.345703 L 789.66992 69.660156 L 789.66992 90.488281 L 792.06641 90.488281 C 793.46064 90.488281 794.6362 90.583826 795.7832 90.480469 C 796.3567 90.42879 796.92413 90.326649 797.50586 90.138672 C 798.08759 89.950695 798.68365 89.677212 799.32031 89.279297 C 799.52139 89.153621 799.72756 88.965093 799.92969 88.830078 L 799.92969 69.660156 L 825.31055 32.84375 C 825.0828 32.663246 825.00531 32.733823 824.71484 32.443359 C 823.68718 31.415687 823.04558 30.05656 822.37695 28.726562 C 822.04264 28.061564 821.70203 27.403579 821.30273 26.798828 C 820.90344 26.194077 820.44634 25.641451 819.87891 25.1875 C 819.44474 24.840169 818.89655 24.709958 818.34375 24.585938 L 794.71094 59.039062 L 791.68945 54.587891 z "
           style="font-size:50.79999924px;letter-spacing:10.86908436px;stroke-width:0.26458332" />
        <path
           transform="matrix(0.28222224,0,0,0.28222222,23.282106,22.839657)"
           id="path4453"
           d="M 773.27344 27.607422 C 773.08903 27.6201 772.89979 27.576923 772.7168 27.607422 C 771.82771 27.755599 771.13569 28.48167 770.29883 28.816406 C 769.11533 29.289806 767.88113 29.622304 766.67188 30.025391 C 765.51338 30.411554 764.37575 30.872783 763.19531 31.183594 L 767.34961 37.259766 C 768.42961 38.699766 769.86992 39.419922 771.66992 39.419922 C 772.62992 39.419922 773.59078 39.119531 774.55078 38.519531 C 775.75078 37.679531 776.47094 36.599297 776.71094 35.279297 C 776.95094 33.839297 776.65055 32.520312 775.81055 31.320312 L 773.27344 27.607422 z "
           style="font-size:50.79999924px;letter-spacing:10.86908436px;stroke-width:0.26458332" />
        <path
           transform="matrix(0.28222224,0,0,0.28222222,23.282106,22.839657)"
           id="path19"
           d="M 750.9707 0.81054688 C 750.3107 0.93054687 749.65023 1.1991406 748.99023 1.6191406 C 747.91023 2.4591406 747.19008 3.5990625 746.83008 5.0390625 C 746.59008 6.3590625 746.95016 7.6203125 747.91016 8.8203125 L 763.19531 31.183594 C 764.37575 30.872783 765.51338 30.411554 766.67188 30.025391 C 767.88113 29.622304 769.11533 29.289806 770.29883 28.816406 C 771.13569 28.48167 771.82771 27.755599 772.7168 27.607422 C 772.89979 27.576923 773.08903 27.6201 773.27344 27.607422 L 756.37109 2.8808594 C 755.41109 1.8008594 754.27117 1.1403906 752.95117 0.90039062 C 752.29117 0.72039063 751.6307 0.69054688 750.9707 0.81054688 z "
           style="font-size:50.79999924px;letter-spacing:10.86908436px;stroke-width:0.26458332" />
      </g>
      <g
         id="s" class="l">
        <path
           transform="matrix(0.28222224,0,0,0.28222222,23.282106,22.839657)"
           id="path4482"
           d="M 926.64453 136.13672 C 926.53113 135.431 926.44801 134.71919 926.29297 134.02148 C 926.01645 132.77716 925.43406 131.62016 925.08398 130.39453 C 924.63069 128.80803 924.32018 127.17892 923.97852 125.56055 C 914.4965 124.55793 907.53138 120.74924 903.41992 113.75977 C 901.61992 110.63977 900.53969 107.82078 900.17969 105.30078 C 899.93969 102.66078 899.82031 101.28016 899.82031 101.16016 C 899.82031 99.720156 899.27922 98.460859 898.19922 97.380859 C 897.11922 96.300859 895.91961 95.759766 894.59961 95.759766 C 893.15961 95.759766 891.90031 96.300859 890.82031 97.380859 C 889.86031 98.460859 889.38086 99.720156 889.38086 101.16016 C 889.38086 101.28016 889.44055 101.88094 889.56055 102.96094 C 889.56055 103.92094 889.73961 105.23992 890.09961 106.91992 C 890.45961 108.47992 890.93906 110.34 891.53906 112.5 C 892.25906 114.54 893.21992 116.64078 894.41992 118.80078 C 895.49992 120.84078 896.94023 122.87992 898.74023 124.91992 C 900.66023 126.95992 902.99977 128.82 905.75977 130.5 C 908.51977 132.18 911.76047 133.56063 915.48047 134.64062 C 918.73829 135.55689 922.52299 135.99781 926.64453 136.13672 z "
           style="font-size:50.79999924px;letter-spacing:10.86908436px;stroke-width:0.26458332" />
        <path
           transform="matrix(0.28222224,0,0,0.28222222,23.282106,22.839657)"
           id="path4480"
           d="M 951.34961 118.73633 C 946.57686 123.5237 939.12411 126 928.80078 126 C 927.06221 126 925.56647 125.72846 923.97852 125.56055 C 924.32018 127.17892 924.63069 128.80803 925.08398 130.39453 C 925.43406 131.62016 926.01645 132.77716 926.29297 134.02148 C 926.44801 134.71919 926.53113 135.431 926.64453 136.13672 C 927.38106 136.16154 928.03667 136.25977 928.80078 136.25977 C 933.12078 136.25977 937.13938 135.89969 940.85938 135.17969 C 944.57937 134.33969 947.82008 133.25945 950.58008 131.93945 C 953.22008 130.61945 955.55961 129.05977 957.59961 127.25977 C 958.37809 126.61103 959.07289 125.87901 959.77344 125.15234 C 959.15286 124.55637 958.57662 123.98092 957.73438 123.13867 C 956.92817 122.33249 956.26506 121.35116 955.31641 120.71875 C 954.08661 119.89887 952.66111 119.41546 951.34961 118.73633 z "
           style="font-size:50.79999924px;letter-spacing:10.86908436px;stroke-width:0.26458332" />
        <path
           transform="matrix(0.28222224,0,0,0.28222222,23.282106,22.839657)"
           id="path4478"
           d="M 957.73438 73.412109 C 957.06916 72.780772 956.53111 72.031506 955.80078 71.460938 C 951.48078 67.620938 946.07961 65.160078 939.59961 64.080078 C 938.03961 63.840078 936.66094 64.080781 935.46094 64.800781 C 934.38094 65.520781 933.72047 66.599063 933.48047 68.039062 C 933.12047 69.479062 933.29953 70.8 934.01953 72 C 934.85953 73.2 935.99945 73.920156 937.43945 74.160156 C 942.31561 75.074435 946.27968 76.868072 949.38672 79.488281 C 949.74421 79.11678 950.0828 78.724302 950.47852 78.394531 C 951.59501 77.464119 952.86121 76.724303 954.10742 75.976562 C 954.63344 75.66095 955.3754 75.386145 956.06836 75.025391 C 956.76132 74.664636 957.40442 74.218485 957.73438 73.558594 C 957.75623 73.514911 957.72215 73.458064 957.73438 73.412109 z "
           style="font-size:50.79999924px;letter-spacing:10.86908436px;stroke-width:0.26458332" />
        <path
           transform="matrix(0.28222224,0,0,0.28222222,23.282106,22.839657)"
           id="path4476"
           d="M 957.73438 73.412109 C 957.72215 73.458064 957.75623 73.514911 957.73438 73.558594 C 957.40442 74.218485 956.76132 74.664636 956.06836 75.025391 C 955.3754 75.386145 954.63344 75.66095 954.10742 75.976562 C 952.86121 76.724303 951.59501 77.464119 950.47852 78.394531 C 950.0828 78.724302 949.74421 79.11678 949.38672 79.488281 C 954.84352 84.090078 957.59961 91.296441 957.59961 101.16016 C 957.59961 108.81629 955.45353 114.61983 951.34961 118.73633 C 952.66111 119.41546 954.08661 119.89887 955.31641 120.71875 C 956.26506 121.35116 956.92817 122.33249 957.73438 123.13867 C 958.57662 123.98092 959.15286 124.55637 959.77344 125.15234 C 961.01665 123.86277 962.18192 122.49596 963.17969 120.96094 C 965.57969 116.88094 966.96031 112.97977 967.32031 109.25977 C 967.80031 105.53977 968.03906 102.84016 968.03906 101.16016 C 968.03906 99.720156 967.86 97.320937 967.5 93.960938 C 967.26 90.480938 966.29914 86.820469 964.61914 82.980469 C 962.96713 79.190555 960.56682 76.10029 957.73438 73.412109 z "
           style="font-size:50.79999924px;letter-spacing:10.86908436px;stroke-width:0.26458332" />
        <path
           transform="matrix(0.28222224,0,0,0.28222222,23.282106,22.839657)"
           id="path4474"
           d="M 901.74805 48.119141 C 898.70374 48.660049 895.76423 49.112845 894.85352 49.373047 C 893.98689 49.620653 893.31744 50.405266 892.43359 50.582031 C 892.16665 50.635419 891.8906 50.595582 891.62109 50.623047 C 892.13194 51.968321 892.63485 53.310713 893.33984 54.720703 C 895.37984 59.280703 898.56086 63.120234 902.88086 66.240234 C 907.56086 69.840234 913.49922 72.000703 920.69922 72.720703 C 920.81922 72.840703 921.05992 72.900391 921.41992 72.900391 C 922.73992 72.900391 923.82016 72.480625 924.66016 71.640625 C 925.62016 70.800625 926.22094 69.720391 926.46094 68.400391 C 926.70094 67.080391 926.34086 65.880781 925.38086 64.800781 C 924.54086 63.600781 923.46062 62.880625 922.14062 62.640625 C 917.46063 62.040625 913.68078 60.839062 910.80078 59.039062 C 907.92078 57.239063 905.64094 55.140234 903.96094 52.740234 C 903.0365 51.246916 902.33537 49.696737 901.74805 48.119141 z "
           style="font-size:50.79999924px;letter-spacing:10.86908436px;stroke-width:0.26458332" />
        <path
           transform="matrix(0.28222224,0,0,0.28222222,23.282106,22.839657)"
           id="path4472"
           d="M 902.26758 23.978516 C 902.23947 23.978701 902.13197 23.978516 902.10742 23.978516 L 894.85352 23.978516 C 894.04734 23.978516 893.21571 23.782996 892.43359 23.978516 C 891.89256 24.113775 891.42441 24.444972 890.9375 24.726562 C 890.58831 26.065093 890.22169 27.367394 889.91992 28.800781 C 889.67992 30.600781 889.56055 32.220156 889.56055 33.660156 C 889.44055 34.980156 889.38086 35.939063 889.38086 36.539062 C 889.38086 37.259062 889.44055 38.279609 889.56055 39.599609 C 889.56055 40.799609 889.67992 42.239922 889.91992 43.919922 C 890.15992 45.479922 890.52 47.220625 891 49.140625 C 891.15938 49.618759 891.43631 50.136445 891.62109 50.623047 C 891.8906 50.595582 892.16665 50.635419 892.43359 50.582031 C 893.31744 50.405266 893.98689 49.620653 894.85352 49.373047 C 895.76423 49.112845 898.70374 48.660049 901.74805 48.119141 C 901.34425 47.034516 900.96515 45.944773 900.7207 44.820312 C 900.1207 41.940313 899.82031 39.179062 899.82031 36.539062 C 899.82031 33.659063 900.18039 30.659062 900.90039 27.539062 C 901.23623 26.291659 901.73992 25.130011 902.26758 23.978516 z "
           style="font-size:50.79999924px;letter-spacing:10.86908436px;stroke-width:0.26458332" />
        <path
           transform="matrix(0.28222224,0,0,0.28222222,23.282106,22.839657)"
           id="path4470"
           d="M 965.94727 25.1875 C 965.21821 25.131653 964.48184 25.012354 963.78125 25.1875 C 963.22821 25.32576 962.87797 25.804215 962.53906 26.310547 C 962.20016 26.816879 961.87119 27.352486 961.36133 27.607422 C 961.00078 27.787688 960.57671 27.697555 960.15234 27.607422 C 959.72798 27.517289 959.30387 27.427156 958.94336 27.607422 C 958.43348 27.862363 958.13743 28.41332 957.73438 28.816406 C 957.2108 28.816406 956.68852 28.821965 956.16406 28.816406 C 956.52834 30.076642 956.86144 31.305328 957.06055 32.400391 C 957.42055 33.600391 957.59961 34.620938 957.59961 35.460938 L 957.7793 36.720703 C 957.7793 38.160703 958.2607 39.360313 959.2207 40.320312 C 960.3007 41.280312 961.56 41.759766 963 41.759766 C 964.32 41.759766 965.45992 41.280312 966.41992 40.320312 C 967.49992 39.240313 968.03906 37.979062 968.03906 36.539062 L 968.03906 36.359375 C 968.03906 35.519375 967.74062 33.360859 967.14062 29.880859 C 966.93546 28.393443 966.48126 26.806451 965.94727 25.1875 z "
           style="font-size:50.79999924px;letter-spacing:10.86908436px;stroke-width:0.26458332" />
        <path
           transform="matrix(0.28222224,0,0,0.28222222,23.282106,22.839657)"
           id="path4468"
           d="M 954.2207 8.2578125 C 954.18451 8.2654445 954.1412 8.24092 954.10742 8.2578125 C 952.80752 8.9077719 951.72477 9.9299903 950.47852 10.677734 C 949.70565 11.141465 948.81049 11.386751 948.06055 11.886719 C 947.58624 12.202927 947.32587 12.779498 946.85156 13.095703 C 946.20332 13.527868 945.42176 13.7394 944.75977 14.140625 C 948.54612 16.26006 951.58934 19.260727 953.82031 23.220703 C 954.78031 24.900703 955.50047 26.520078 955.98047 28.080078 C 956.06226 28.345914 956.08924 28.55754 956.16406 28.816406 C 956.68852 28.821965 957.2108 28.816406 957.73438 28.816406 C 958.13743 28.41332 958.43348 27.862363 958.94336 27.607422 C 959.30387 27.427156 959.72798 27.517289 960.15234 27.607422 C 960.57671 27.697555 961.00078 27.787688 961.36133 27.607422 C 961.87119 27.352486 962.20016 26.816879 962.53906 26.310547 C 962.87797 25.804215 963.22821 25.32576 963.78125 25.1875 C 964.48184 25.012354 965.21821 25.131653 965.94727 25.1875 C 965.23191 23.01871 964.30549 20.764217 963 18.359375 C 961.8 16.319375 960.24031 14.220547 958.32031 12.060547 C 957.17286 10.683606 955.75827 9.4396949 954.2207 8.2578125 z "
           style="font-size:50.79999924px;letter-spacing:10.86908436px;stroke-width:0.26458332" />
        <path
           transform="matrix(0.28222224,0,0,0.28222222,23.282106,22.839657)"
           id="path21"
           d="M 928.61914 0.1796875 C 924.29914 0.1796875 920.28055 0.59945313 916.56055 1.4394531 C 912.84055 2.2794531 909.54016 3.419375 906.66016 4.859375 C 901.26016 7.859375 897.17992 11.700859 894.41992 16.380859 C 893.21992 18.300859 892.25906 20.280313 891.53906 22.320312 C 891.31627 23.077808 891.14375 23.935976 890.9375 24.726562 C 891.42441 24.444972 891.89256 24.113775 892.43359 23.978516 C 893.21571 23.782996 894.04734 23.978516 894.85352 23.978516 L 902.10742 23.978516 C 902.13197 23.978516 902.23947 23.978701 902.26758 23.978516 C 903.05969 22.249896 903.99631 20.59256 905.2207 19.080078 C 907.3807 16.560078 910.31906 14.520937 914.03906 12.960938 C 917.75906 11.280938 922.61914 10.439453 928.61914 10.439453 C 935.04171 10.439453 940.39967 11.700036 944.75977 14.140625 C 945.42176 13.7394 946.20332 13.527868 946.85156 13.095703 C 947.32587 12.779498 947.58624 12.202927 948.06055 11.886719 C 948.81049 11.386751 949.70565 11.141465 950.47852 10.677734 C 951.72477 9.9299903 952.80752 8.9077719 954.10742 8.2578125 C 954.1412 8.24092 954.18451 8.2654445 954.2207 8.2578125 C 953.3463 7.5856817 952.48104 6.9098274 951.48047 6.3007812 C 948.72047 4.5007813 945.47977 3.0604687 941.75977 1.9804688 C 938.03977 0.78046876 933.65914 0.1796875 928.61914 0.1796875 z "
           style="font-size:50.79999924px;letter-spacing:10.86908436px;stroke-width:0.26458332" />
      </g>
      <g
         id="t2" class="l">
        <path
           transform="matrix(0.28222224,0,0,0.28222222,23.282106,22.839657)"
           id="path4501"
           d="M 1099.5215 10.980469 L 1108.0898 10.980469 C 1109.5298 10.980469 1110.7295 10.499062 1111.6895 9.5390625 C 1112.7695 8.4590625 1113.3086 7.2594531 1113.3086 5.9394531 C 1113.3086 4.4994531 1112.7695 3.2998437 1111.6895 2.3398438 C 1110.7295 1.2598438 1109.5298 0.72070312 1108.0898 0.72070312 L 1100.4277 0.72070312 L 1100.4277 4.6308594 L 1100.4277 7.0488281 C 1100.4277 7.4519147 1100.5255 7.8667625 1100.4277 8.2578125 C 1100.1959 9.1855228 1099.8695 10.089444 1099.5215 10.980469 z "
           style="font-size:50.79999924px;letter-spacing:10.86908436px;stroke-width:0.26458332" />
        <path
           transform="matrix(0.28222224,0,0,0.28222222,23.282106,22.839657)"
           id="path4499"
           d="M 1060.0293 61.53125 C 1060.1373 61.454194 1060.2404 61.370988 1060.3477 61.292969 C 1060.2387 61.189433 1060.1386 61.077791 1060.0293 60.974609 L 1060.0293 61.53125 z "
           style="font-size:50.79999924px;letter-spacing:10.86908436px;stroke-width:0.26458332" />
        <path
           transform="matrix(0.28222224,0,0,0.28222222,23.282106,22.839657)"
           id="path4497"
           d="M 1070.4688 101.16602 C 1070.3802 101.23764 1070.2818 101.29695 1070.1953 101.37109 C 1065.8865 105.67987 1066.1767 105.50897 1066.4922 105.10156 C 1066.5711 104.99971 1066.6516 104.8833 1066.6621 104.81836 C 1066.6726 104.75342 1066.6148 104.73912 1066.4141 104.84375 C 1066.0125 105.05301 1065.0439 105.7344 1062.9395 107.41797 C 1062.4944 107.77408 1062.154 108.2717 1061.793 108.73438 C 1061.4319 109.19705 1061.0508 109.62423 1060.5215 109.83594 C 1060.3675 109.89751 1060.1901 109.82904 1060.0293 109.85156 L 1060.0293 130.5 C 1060.0293 131.94 1060.5088 133.1993 1061.4688 134.2793 C 1062.4287 135.2393 1063.69 135.7207 1065.25 135.7207 C 1066.69 135.7207 1067.8896 135.2393 1068.8496 134.2793 C 1069.9296 133.1993 1070.4688 131.94 1070.4688 130.5 L 1070.4688 101.16602 z "
           style="font-size:50.79999924px;letter-spacing:10.86908436px;stroke-width:0.26458332" />
        <path
           transform="matrix(0.28222224,0,0,0.28222222,23.282106,22.839657)"
           id="path4495"
           d="M 1070.4688 79.509766 C 1069.9405 78.66691 1069.841 78.68125 1068.9863 77.185547 C 1068.5741 76.46405 1068.441 75.63592 1068.3262 74.796875 C 1068.2113 73.95783 1068.1148 73.108974 1067.7773 72.349609 C 1066.8227 70.201805 1065.3145 68.343435 1064.1484 66.302734 C 1063.7012 65.520163 1063.5166 64.577185 1062.9395 63.884766 C 1062.1573 62.94614 1061.2347 62.135868 1060.3477 61.292969 C 1060.2404 61.370988 1060.1373 61.454194 1060.0293 61.53125 L 1060.0293 109.85156 C 1060.1901 109.82904 1060.3675 109.89751 1060.5215 109.83594 C 1061.0508 109.62423 1061.4319 109.19705 1061.793 108.73438 C 1062.154 108.2717 1062.4944 107.77408 1062.9395 107.41797 C 1065.0439 105.7344 1066.0125 105.05301 1066.4141 104.84375 C 1066.6148 104.73912 1066.6726 104.75342 1066.6621 104.81836 C 1066.6516 104.8833 1066.5711 104.99971 1066.4922 105.10156 C 1066.1767 105.50897 1065.8865 105.67987 1070.1953 101.37109 C 1070.2818 101.29695 1070.3802 101.23764 1070.4688 101.16602 L 1070.4688 79.509766 z "
           style="font-size:50.79999924px;letter-spacing:10.86908436px;stroke-width:0.26458332" />
        <path
           transform="matrix(0.28222224,0,0,0.28222222,23.282106,22.839657)"
           id="path4493"
           d="M 1070.4688 54.574219 C 1069.7775 54.867719 1069.0892 55.166777 1068.3652 55.392578 C 1067.3193 55.71878 1066.2797 56.053673 1065.3594 56.628906 C 1064.6342 57.082095 1064.0516 57.710706 1063.4883 58.365234 C 1062.9249 59.019763 1062.3797 59.699383 1061.7305 60.255859 C 1061.293 60.630841 1060.8139 60.953837 1060.3477 61.292969 C 1061.2347 62.135868 1062.1573 62.94614 1062.9395 63.884766 C 1063.5166 64.577185 1063.7012 65.520163 1064.1484 66.302734 C 1065.3145 68.343435 1066.8227 70.201805 1067.7773 72.349609 C 1068.1148 73.108974 1068.2113 73.95783 1068.3262 74.796875 C 1068.441 75.63592 1068.5741 76.46405 1068.9863 77.185547 C 1069.841 78.68125 1069.9405 78.66691 1070.4688 79.509766 L 1070.4688 54.574219 z "
           style="font-size:50.79999924px;letter-spacing:10.86908436px;stroke-width:0.26458332" />
        <path
           transform="matrix(0.28222224,0,0,0.28222222,23.282106,22.839657)"
           id="path4491"
           d="M 1031.5 10.980469 L 1031.5 0.72070312 L 1022.7695 0.72070312 C 1021.3295 0.72070312 1020.0702 1.2598438 1018.9902 2.3398438 C 1018.0302 3.2998437 1017.5488 4.4994531 1017.5488 5.9394531 C 1017.5488 7.2594531 1018.0302 8.4590625 1018.9902 9.5390625 C 1020.0702 10.499062 1021.3295 10.980469 1022.7695 10.980469 L 1031.5 10.980469 z "
           style="font-size:50.79999924px;letter-spacing:10.86908436px;stroke-width:0.26458332" />
        <path
           transform="matrix(0.28222224,0,0,0.28222222,23.282106,22.839657)"
           id="path4489"
           d="M 1062.8516 19.330078 C 1062.3495 19.592314 1061.8674 19.891417 1061.4688 20.339844 C 1060.5088 21.299844 1060.0293 22.439766 1060.0293 23.759766 L 1060.0293 25.066406 C 1060.441 24.327269 1060.8781 23.603322 1061.2344 22.832031 C 1061.7737 21.664371 1062.2845 20.481652 1062.8516 19.330078 z "
           style="font-size:50.79999924px;letter-spacing:10.86908436px;stroke-width:0.26458332" />
        <path
           transform="matrix(0.28222224,0,0,0.28222222,23.282106,22.839657)"
           id="path4487"
           d="M 1062.8516 19.330078 C 1062.2845 20.481652 1061.7737 21.664371 1061.2344 22.832031 C 1060.8781 23.603322 1060.441 24.327269 1060.0293 25.066406 L 1060.0293 60.974609 C 1060.1386 61.077791 1060.2387 61.189433 1060.3477 61.292969 C 1060.8139 60.953837 1061.293 60.630841 1061.7305 60.255859 C 1062.3797 59.699383 1062.9249 59.019763 1063.4883 58.365234 C 1064.0516 57.710706 1064.6342 57.082095 1065.3594 56.628906 C 1066.2797 56.053673 1067.3193 55.71878 1068.3652 55.392578 C 1069.0892 55.166777 1069.7775 54.867719 1070.4688 54.574219 L 1070.4688 23.759766 C 1070.4688 22.439766 1069.9296 21.299844 1068.8496 20.339844 C 1067.8896 19.259844 1066.69 18.720703 1065.25 18.720703 C 1064.3377 18.720703 1063.5586 18.960741 1062.8516 19.330078 z "
           style="font-size:50.79999924px;letter-spacing:10.86908436px;stroke-width:0.26458332" />
        <path
           transform="matrix(0.28222224,0,0,0.28222222,23.282106,22.839657)"
           id="path4485"
           d="M 1072.0059 0.72070312 L 1031.5 0.72070312 L 1031.5 10.980469 L 1067.0234 10.980469 C 1067.9216 9.2028764 1069.3854 6.3585403 1070.9785 3.0898438 C 1071.4289 2.1657739 1071.581 1.6261059 1072.0059 0.72070312 z "
           style="font-size:50.79999924px;letter-spacing:10.86908436px;stroke-width:0.26458332" />
        <path
           transform="matrix(0.28222224,0,0,0.28222222,23.282106,22.839657)"
           id="path23"
           d="M 1072.0059 0.72070312 C 1071.581 1.6261059 1071.4289 2.1657739 1070.9785 3.0898438 C 1069.3854 6.3585403 1067.9216 9.2028764 1067.0234 10.980469 L 1099.5215 10.980469 C 1099.8695 10.089444 1100.1959 9.1855228 1100.4277 8.2578125 C 1100.5255 7.8667625 1100.4277 7.4519147 1100.4277 7.0488281 L 1100.4277 4.6308594 L 1100.4277 0.72070312 L 1072.0059 0.72070312 z "
           style="font-size:50.79999924px;letter-spacing:10.86908436px;stroke-width:0.26458332" />
      </g>
    </g>
</svg>
